<svg id="Layer_1" data-name="Layer 1" xmlns="http://www.w3.org/2000/svg" viewBox="0 0 733.43 183.86"><defs><style>.cls-1{fill:#fff;}</style></defs><title>appvia_logo_white</title><path class="cls-1" d="M223.29,273.71l-58.13-58.13a33.94,33.94,0,0,0-47.86,0L59.17,273.71a33.94,33.94,0,0,0,0,47.86L117.3,379.7a33.94,33.94,0,0,0,47.86,0l58.13-58.13A33.94,33.94,0,0,0,223.29,273.71Zm-16.38,25.6-12,12c-.94.94-2,1.21-2.61.65l-31.19-31.2a.71.71,0,0,1-.08-.15l-21.7-21.69-38.68,38.7,38.56,38.55,22.46-22.47c.46-.45,1.48-.09,2.43.86l6,6,.12.1.1.12,5.87,5.87c1,.95,1.32,2,.86,2.42l-24.79,24.8h0L147,359.19a10.76,10.76,0,0,1-15.23,0L77.77,305.26a10.76,10.76,0,0,1,0-15.23l53.91-53.95a10.79,10.79,0,0,1,15.24,0l54,53.94a.81.81,0,0,1,.09.1l6.58,6.58C208.12,297.27,207.85,298.37,206.91,299.31Z" transform="translate(-49.3 -205.71)"/><path class="cls-1" d="M300,332.7c-.12,1.5-1.16,2-2.43,2H283a2,2,0,0,1-2.08-2.08,29.75,29.75,0,0,1,.69-4l13.75-65.84a2.19,2.19,0,0,1,2.31-2.08h16.17a2.19,2.19,0,0,1,2.31,2.08l13.75,65.84a29.75,29.75,0,0,1,.69,4,2,2,0,0,1-2.08,2.08H314c-1.27,0-2.31-.46-2.42-2l-1.16-9.94h-9.24Zm7.85-30.5c-.34-2.65-1.38-13.74-1.38-14.9s-.23-1.38-.7-1.38-.69.34-.69,1.38-1,12.25-1.39,14.9l-.92,7.63h6Z" transform="translate(-49.3 -205.71)"/><path class="cls-1" d="M378.9,332.47V262.81a2.12,2.12,0,0,1,2.19-2.19h26.34c12.94,0,18.13,11.09,18.13,24.26,0,13.4-5.19,24.25-17.44,24.25h-8.66v23.34a2.13,2.13,0,0,1-2.2,2.19H381.09A2.12,2.12,0,0,1,378.9,332.47Zm20.56-37.2h1.73c3.23,0,3.81-1.73,3.81-10.39s-.58-10.4-3.81-10.4h-1.73Z" transform="translate(-49.3 -205.71)"/><path class="cls-1" d="M474.31,332.47V262.81a2.12,2.12,0,0,1,2.19-2.19h26.34c12.94,0,18.14,11.09,18.14,24.26,0,13.4-5.2,24.25-17.44,24.25h-8.67v23.34a2.12,2.12,0,0,1-2.19,2.19H476.5A2.12,2.12,0,0,1,474.31,332.47Zm20.56-37.2h1.73c3.24,0,3.82-1.73,3.82-10.39s-.58-10.4-3.82-10.4h-1.73Z" transform="translate(-49.3 -205.71)"/><path class="cls-1" d="M580.7,332.58,567,266.74a29.75,29.75,0,0,1-.69-4,2,2,0,0,1,2.08-2.08h15.71c1.27,0,2.31.46,2.43,2l3.35,30.15c.23,2.54.57,8.09.57,9.24s.23,1.39.7,1.39.69-.35.69-1.39.35-6.7.58-9.24l3.35-30.15c.11-1.5,1.15-2,2.42-2h15.71a2,2,0,0,1,2.08,2.08,29.75,29.75,0,0,1-.69,4l-13.75,65.84a2.19,2.19,0,0,1-2.31,2.08H583A2.19,2.19,0,0,1,580.7,332.58Z" transform="translate(-49.3 -205.71)"/><path class="cls-1" d="M664.22,332.47V262.81a2.12,2.12,0,0,1,2.19-2.19h16.18a2.12,2.12,0,0,1,2.19,2.19v69.66a2.12,2.12,0,0,1-2.19,2.19H666.41A2.12,2.12,0,0,1,664.22,332.47Z" transform="translate(-49.3 -205.71)"/><path class="cls-1" d="M752.12,332.7c-.11,1.5-1.15,2-2.42,2H735.14a2,2,0,0,1-2.08-2.08,29.87,29.87,0,0,1,.7-4L747.5,262.7a2.19,2.19,0,0,1,2.31-2.08H766a2.19,2.19,0,0,1,2.31,2.08L782,328.54a29.87,29.87,0,0,1,.7,4,2,2,0,0,1-2.08,2.08H766.1c-1.27,0-2.31-.46-2.42-2l-1.16-9.94h-9.24ZM760,302.2c-.35-2.65-1.39-13.74-1.39-14.9s-.23-1.38-.69-1.38-.69.34-.69,1.38-1,12.25-1.39,14.9l-.92,7.63h6Z" transform="translate(-49.3 -205.71)"/></svg>
